# xmcd
#
# Track frame offsets:
#	150
#	15355
#	25537
#	37030
#	58517
#	74847
#	89192
#	105315
#	119617
#	134990
#	153882
#	166165
#	182027
#	197600
#
# Disc length: 2995 seconds
#
# Revision: 6
# Processed by: cddbd v1.5.2PL0 Copyright (c) Steve Scherf et al.
# Submitted via: audiograbber 1.83.01
#
DISCID=c00bb10e
DTITLE=Various Artist - Tribute To Tradition
DYEAR=1998
DGENRE=Country - Traditional Country
TTITLE0=Dixie Chicks - Stand By Your Man
TTITLE1=Randy Travis - Mama Tried
TTITLE2=Patty Loveless - Wine, Women And Song
TTITLE3=Trace Adkins - I Never Go Around Mirrors
TTITLE4=Mary Chapin Carpenter - Oh, Lonesome Me
TTITLE5=Joe Diffie - Behind Closed Doors
TTITLE6=Wade Hayes - She's Actin' Single (I'm Drinkin' Doubles)
TTITLE7=Martina McBride - 'Til I Can Make It On My Own
TTITLE8=Colin Raye - Cold Cold Heart
TTITLE9=Alison Krauss - The Three Bells
TTITLE10=Rick Trevino - City Lights
TTITLE11=Colin Raye - Joe Diffie - Honky Tonk Heroes (Like Me)
TTITLE12=Doug Stone - Gone Out Of My Mind
TTITLE13=Alise Krauss, Clint black - Same old train
EXTD=
EXTT0=
EXTT1=
EXTT2=
EXTT3=
EXTT4=
EXTT5=
EXTT6=
EXTT7=
EXTT8=
EXTT9=
EXTT10=
EXTT11=
EXTT12=
EXTT13=
PLAYORDER=
